# xmcd CD database file
#
# Track frame offsets:
#	150
#	14786
#	27851
#	44399
#	59294
#	72649
#	88497
#	103007
#	118361
#	135761
#	147437
#	160489
#	176532
#
# Disc length: 2566 seconds
#
# Revision: 0
# Processed by: cddbd v1.5.2PL0 Copyright (c) Steve Scherf et al.
# Submitted via: Feurio! 1.68 - http://www.feurio.com
#
DISCID=c40a040d
DTITLE=STJEPAN JERSEK STEF - Sve Postivam, Svoje Uzivam
DYEAR=1900
DGENRE=
TTITLE0=svirac stari
TTITLE1=sve postivam, svoje uzivam
TTITLE2=slavonijo, za te palim svijecu
TTITLE3=svako vrijemo svoje cari nosi
TTITLE4=zvijezda u noci
TTITLE5=podravino, za te zivim
TTITLE6=zbog garave
TTITLE7=ne daj slavonijo
TTITLE8=ne placi dido
TTITLE9=imam srce, imam dusu
TTITLE10=nek ti bude i ovaj puta
TTITLE11=uzalud mi idu dani
TTITLE12=najdraza moja
EXTD=
EXTT0=
EXTT1=
EXTT2=
EXTT3=
EXTT4=
EXTT5=
EXTT6=
EXTT7=
EXTT8=
EXTT9=
EXTT10=
EXTT11=
EXTT12=
PLAYORDER=
